<mxfile>
    <diagram id="J7INWLaaWKL7pv0Zl2Iv" name="第 1 页">
        <mxGraphModel dx="774" dy="896" grid="0" gridSize="10" guides="1" tooltips="1" connect="1" arrows="1" fold="1" page="1" pageScale="1" pageWidth="827" pageHeight="1169" background="none" math="0" shadow="0">
            <root>
                <mxCell id="0"/>
                <mxCell id="1" parent="0"/>
                <mxCell id="41" value="" style="line;strokeWidth=2;html=1;rounded=1;shadow=0;glass=0;labelBackgroundColor=#000000;sketch=1;fillColor=none;fontSize=15;fontColor=#FFFFFF;strokeColor=#000000;" vertex="1" parent="1">
                    <mxGeometry x="254" y="327" width="24" height="10" as="geometry"/>
                </mxCell>
                <mxCell id="6" value="" style="rounded=0;whiteSpace=wrap;html=1;fillColor=#f5f5f5;strokeColor=#666666;fontColor=#333333;sketch=1;" vertex="1" parent="1">
                    <mxGeometry x="293" y="332" width="218" height="249" as="geometry"/>
                </mxCell>
                <mxCell id="7" value="1" style="rounded=1;whiteSpace=wrap;html=1;fillColor=#1ba1e2;strokeColor=#006EAF;sketch=1;fontColor=#000000;fontStyle=1;fontSize=21;" vertex="1" parent="1">
                    <mxGeometry x="379" y="433.5" width="46" height="46" as="geometry"/>
                </mxCell>
                <mxCell id="33" style="edgeStyle=orthogonalEdgeStyle;rounded=0;sketch=1;orthogonalLoop=1;jettySize=auto;html=1;exitX=0.5;exitY=1;exitDx=0;exitDy=0;entryX=0.5;entryY=0;entryDx=0;entryDy=0;fontSize=21;fontColor=#000000;fillColor=#a20025;strokeColor=#6F0000;" edge="1" parent="1" source="9" target="8">
                    <mxGeometry relative="1" as="geometry"/>
                </mxCell>
                <mxCell id="39" value="&lt;div style=&quot;color: rgb(171 , 178 , 191) ; background-color: rgb(40 , 44 , 52) ; font-family: &amp;#34;menlo&amp;#34; , &amp;#34;monaco&amp;#34; , &amp;#34;courier new&amp;#34; , monospace ; font-size: 13px ; line-height: 20px&quot;&gt;CUBIC&lt;/div&gt;" style="edgeLabel;html=1;align=center;verticalAlign=middle;resizable=0;points=[];fontSize=15;fontColor=#FFFFFF;labelBackgroundColor=#000000;" vertex="1" connectable="0" parent="33">
                    <mxGeometry x="-0.1905" y="-2" relative="1" as="geometry">
                        <mxPoint as="offset"/>
                    </mxGeometry>
                </mxCell>
                <mxCell id="9" value="2" style="rounded=1;whiteSpace=wrap;html=1;fillColor=#1ba1e2;strokeColor=#006EAF;sketch=1;glass=0;fontColor=#000000;fontSize=21;fontStyle=1" vertex="1" parent="1">
                    <mxGeometry x="379" y="221" width="46" height="46" as="geometry"/>
                </mxCell>
                <mxCell id="11" style="edgeStyle=orthogonalEdgeStyle;rounded=0;orthogonalLoop=1;jettySize=auto;html=1;exitX=0.5;exitY=1;exitDx=0;exitDy=0;" edge="1" parent="1" source="6" target="6">
                    <mxGeometry relative="1" as="geometry"/>
                </mxCell>
                <mxCell id="15" style="edgeStyle=orthogonalEdgeStyle;rounded=0;orthogonalLoop=1;jettySize=auto;html=1;exitX=0.5;exitY=1;exitDx=0;exitDy=0;" edge="1" parent="1" source="6" target="6">
                    <mxGeometry relative="1" as="geometry"/>
                </mxCell>
                <mxCell id="35" value="&lt;div style=&quot;color: rgb(171 , 178 , 191) ; background-color: rgb(40 , 44 , 52) ; font-family: &amp;#34;menlo&amp;#34; , &amp;#34;monaco&amp;#34; , &amp;#34;courier new&amp;#34; , monospace ; font-size: 13px ; line-height: 20px&quot;&gt;SPLINE&lt;/div&gt;" style="edgeStyle=segmentEdgeStyle;endArrow=classic;html=1;fontSize=15;entryX=0.75;entryY=0;entryDx=0;entryDy=0;exitX=1;exitY=0.25;exitDx=0;exitDy=0;sketch=1;fillColor=#ffe6cc;strokeColor=#d79b00;fontColor=#FFFFFF;labelBackgroundColor=#FFFF33;" edge="1" parent="1" source="7" target="6">
                    <mxGeometry x="0.2524" y="-15" width="50" height="50" relative="1" as="geometry">
                        <mxPoint x="428" y="434" as="sourcePoint"/>
                        <mxPoint x="478" y="384" as="targetPoint"/>
                        <Array as="points">
                            <mxPoint x="425" y="457"/>
                            <mxPoint x="456" y="457"/>
                        </Array>
                        <mxPoint as="offset"/>
                    </mxGeometry>
                </mxCell>
                <mxCell id="37" value="" style="edgeStyle=elbowEdgeStyle;elbow=vertical;endArrow=classic;html=1;fontSize=21;fontColor=#000000;entryX=1;entryY=0.5;entryDx=0;entryDy=0;fillColor=#0050ef;strokeColor=#001DBC;sketch=1;" edge="1" parent="1" target="9">
                    <mxGeometry width="50" height="50" relative="1" as="geometry">
                        <mxPoint x="457" y="330" as="sourcePoint"/>
                        <mxPoint x="478" y="384" as="targetPoint"/>
                        <Array as="points">
                            <mxPoint x="457" y="244"/>
                        </Array>
                    </mxGeometry>
                </mxCell>
                <mxCell id="38" value="&lt;div style=&quot;color: rgb(171 , 178 , 191) ; background-color: rgb(40 , 44 , 52) ; font-family: &amp;#34;menlo&amp;#34; , &amp;#34;monaco&amp;#34; , &amp;#34;courier new&amp;#34; , monospace ; font-size: 13px ; line-height: 20px&quot;&gt;BALLISTIC&lt;/div&gt;" style="edgeLabel;html=1;align=center;verticalAlign=middle;resizable=0;points=[];fontSize=15;fontColor=#FFFFFF;labelBackgroundColor=#3333FF;" vertex="1" connectable="0" parent="37">
                    <mxGeometry x="-0.2712" y="-2" relative="1" as="geometry">
                        <mxPoint x="19" y="-1.2400000000000002" as="offset"/>
                    </mxGeometry>
                </mxCell>
                <mxCell id="8" value="3" style="rounded=1;whiteSpace=wrap;html=1;fillColor=#1ba1e2;strokeColor=#006EAF;glass=0;shadow=0;sketch=1;fontColor=#000000;fontStyle=1;fontSize=21;" vertex="1" parent="1">
                    <mxGeometry x="379" y="309" width="46" height="46" as="geometry"/>
                </mxCell>
                <mxCell id="40" value="" style="line;strokeWidth=2;direction=south;html=1;rounded=1;shadow=0;glass=0;labelBackgroundColor=#000000;sketch=1;fillColor=none;fontSize=15;fontColor=#FFFFFF;strokeColor=#000000;" vertex="1" parent="1">
                    <mxGeometry x="247" y="157" width="10" height="449" as="geometry"/>
                </mxCell>
                <mxCell id="43" value="" style="line;strokeWidth=2;html=1;rounded=1;shadow=0;glass=0;labelBackgroundColor=#000000;sketch=1;fillColor=none;fontSize=15;fontColor=#FFFFFF;strokeColor=#000000;" vertex="1" parent="1">
                    <mxGeometry x="253" y="577" width="24" height="10" as="geometry"/>
                </mxCell>
                <mxCell id="44" value="" style="line;strokeWidth=2;html=1;rounded=1;shadow=0;glass=0;labelBackgroundColor=#000000;sketch=1;fillColor=none;fontSize=15;fontColor=#FFFFFF;strokeColor=#000000;" vertex="1" parent="1">
                    <mxGeometry x="253" y="451.5" width="24" height="10" as="geometry"/>
                </mxCell>
                <mxCell id="45" value="" style="line;strokeWidth=2;html=1;rounded=1;shadow=0;glass=0;labelBackgroundColor=#000000;sketch=1;fillColor=none;fontSize=15;fontColor=#FFFFFF;strokeColor=#000000;" vertex="1" parent="1">
                    <mxGeometry x="253" y="181" width="237" height="10" as="geometry"/>
                </mxCell>
                <mxCell id="46" value="over" style="text;html=1;align=center;verticalAlign=middle;resizable=0;points=[];autosize=1;fontSize=15;fontColor=#000000;strokeColor=#000000;" vertex="1" parent="1">
                    <mxGeometry x="212" y="173" width="39" height="22" as="geometry"/>
                </mxCell>
                <mxCell id="47" value="min" style="text;html=1;align=center;verticalAlign=middle;resizable=0;points=[];autosize=1;fontSize=15;fontColor=#000000;strokeColor=#000000;" vertex="1" parent="1">
                    <mxGeometry x="217" y="320" width="34" height="22" as="geometry"/>
                </mxCell>
                <mxCell id="48" value="start" style="text;html=1;align=center;verticalAlign=middle;resizable=0;points=[];autosize=1;fontSize=15;fontColor=#000000;strokeColor=#000000;" vertex="1" parent="1">
                    <mxGeometry x="212" y="444.5" width="39" height="22" as="geometry"/>
                </mxCell>
                <mxCell id="49" value="max" style="text;html=1;align=center;verticalAlign=middle;resizable=0;points=[];autosize=1;fontSize=15;fontColor=#000000;strokeColor=#000000;" vertex="1" parent="1">
                    <mxGeometry x="213.5" y="569" width="38" height="22" as="geometry"/>
                </mxCell>
                <mxCell id="54" value="" style="triangle;whiteSpace=wrap;html=1;rounded=1;shadow=0;glass=0;labelBackgroundColor=#000000;sketch=0;strokeColor=#000000;fontSize=15;fontColor=#000000;rotation=90;fillColor=#000000;" vertex="1" parent="1">
                    <mxGeometry x="247" y="606" width="10.5" height="8" as="geometry"/>
                </mxCell>
            </root>
        </mxGraphModel>
    </diagram>
</mxfile>